# xmcd
#
# Track frame offsets:
#	150
#	13209
#	28226
#	44032
#	56706
#	70476
#	84698
#	101796
#	116815
#	128782
#	139277
#
# Disc length: 2022 seconds
#
# Revision: 1
# Processed by: cddbd v1.5.2PL0 Copyright (c) Steve Scherf et al.
# Submitted via: audiograbber 1.83.01
#
DISCID=af07e40b
DTITLE=Chase Daniels - Bound And Determinned
DYEAR=1999
DGENRE=Country
TTITLE0=If Love Is A Highway
TTITLE1=She´s Mine
TTITLE2=Daddy Doesn´t Live Here Anymore
TTITLE3=What Is
TTITLE4=An Ole´ Familliar Ring
TTITLE5=Too Many Redheads
TTITLE6=Hillbilly Woman From Outer Spae
TTITLE7=Bound And Determinned
TTITLE8=That´s A Good Start
TTITLE9=I Couldn´t Care Less
TTITLE10=Misey Lane
EXTD=
EXTT0=
EXTT1=
EXTT2=
EXTT3=
EXTT4=
EXTT5=
EXTT6=
EXTT7=
EXTT8=
EXTT9=
EXTT10=
PLAYORDER=
